<svg width="200" height="54" viewBox="0 0 200 54" fill="none" xmlns="http://www.w3.org/2000/svg">
<path d="M69.3034 9.66244C69.3377 9.82834 69.332 12.6373 69.292 12.7688C64.3034 12.7746 59.3091 12.7574 54.3206 12.7746C54.2691 12.7746 54.2119 12.7688 54.1718 12.8203C54.1604 12.8375 54.1318 12.8489 54.1089 12.8489C53.9602 12.8547 53.8801 12.9748 53.7828 13.0606C53.4853 13.3295 53.2222 13.6384 52.9304 13.9187C52.4899 14.365 52.0265 14.794 51.586 15.2402C51.3286 15.5206 51.0597 15.7894 50.7794 16.0412C48.8629 17.9405 46.9636 19.8627 45.0643 21.7791C39.6924 27.111 34.3778 32.4942 28.9888 37.8089C28.1192 38.6899 27.2382 39.5537 26.3686 40.4347C26.0997 40.7036 25.8251 40.9725 25.562 41.2528C25.3618 41.4759 25.2702 41.8135 25.2874 42.111C25.2988 42.2597 25.3789 42.3798 25.4361 42.5114C25.4647 42.6888 25.602 42.7974 25.7222 42.9119C25.951 43.1293 26.2485 43.1693 26.546 43.1807C31.3801 43.1693 36.2084 43.2094 41.0368 43.2208C41.4773 43.238 41.8778 43.2208 42.2039 42.8775C43.4052 41.6762 44.6009 40.4748 45.8137 39.2849C47.8503 37.2483 49.8927 35.2174 51.9178 33.1693C53.0219 32.0823 54.0975 30.9611 55.2073 29.8855C55.5277 29.5881 55.8251 29.2791 56.1341 28.9759C56.2199 28.8901 56.3057 28.81 56.3801 28.7128C56.443 28.6327 56.5116 28.5412 56.5174 28.4325C56.6318 28.3009 56.586 28.135 56.5917 27.9862C56.5975 27.8203 56.5975 27.6544 56.5174 27.4942C56.4487 27.3684 56.3915 27.2368 56.2885 27.1396C56.2199 27.0766 56.1455 27.0137 56.0826 26.945C55.419 26.2871 54.7782 25.6407 54.1146 24.9828C59.1489 24.897 64.2119 24.9828 69.2576 24.9542C69.3549 29.9656 69.292 35.0801 69.2748 40.1029C68.7542 39.5938 68.2393 39.0732 67.7245 38.5583C67.5185 38.3524 67.3183 38.1521 67.1123 37.9519C66.9808 37.8432 66.8263 37.7574 66.6776 37.6773C66.6432 37.6601 66.5975 37.6544 66.5574 37.6487C66.3629 37.6487 66.1627 37.6373 65.9682 37.6487C65.7965 37.6601 65.6478 37.7402 65.5277 37.8604C65.2473 38.1235 64.9785 38.3981 64.7039 38.667C64.3263 39.0446 63.9487 39.4222 63.5711 39.7997C62.1695 41.2414 60.7279 42.6487 59.2977 44.0618C58.6798 44.6682 58.0906 45.3032 57.467 45.8981C57.2725 46.064 57.0322 46.1613 56.7977 46.2471C56.7691 46.2585 56.7348 46.2585 56.7004 46.2585C51.1913 46.2814 45.6879 46.2071 40.1787 46.3043C28.7828 46.3386 17.4098 46.2471 6.00822 46.2757C5.69357 46.2757 5.37893 46.2757 5.05856 46.2757C4.95559 46.2757 4.85261 46.2757 4.75536 46.2128C4.69243 46.1727 4.60662 46.1613 4.53797 46.1213C4.38923 46.0469 4.28625 45.9325 4.18328 45.818C4.06886 45.6922 4.01737 45.5377 3.94872 45.389C3.90868 45.2517 3.93156 45.1087 3.92012 44.9656C3.9144 44.6796 4.03453 44.4393 4.2176 44.2334C4.42927 43.9988 4.66382 43.7814 4.88694 43.5526C5.06428 43.3753 5.24163 43.1922 5.41897 43.0148C5.75078 42.6888 6.07687 42.3512 6.40296 42.0194C6.5803 41.8421 6.76909 41.6762 6.95215 41.4988C7.10662 41.3501 7.2382 41.1785 7.39838 41.0354C7.85604 40.6178 8.27366 40.1602 8.70845 39.7196C8.82858 39.5938 8.96588 39.4908 9.08602 39.365C9.20616 39.2448 9.32058 39.1075 9.44071 38.9874C10.2645 38.2036 11.0483 37.3798 11.8549 36.5789C12.7702 35.6922 13.6512 34.7711 14.5608 33.8787C15.2016 33.2494 15.8252 32.6029 16.4773 31.9851C16.6947 31.7505 16.9235 31.5217 17.1524 31.2929C17.3126 31.1155 17.4785 30.9439 17.6501 30.7837C17.959 30.5148 18.2165 30.2002 18.5254 29.9313C19.1203 29.3306 19.721 28.7299 20.316 28.1293C20.6707 27.7974 21.0082 27.4428 21.3572 27.0995C21.6318 26.8306 21.9121 26.5618 22.1753 26.2814C22.7302 25.7151 23.3023 25.1659 23.8572 24.6052C24.1547 24.3249 24.4407 24.0331 24.7153 23.7357C25.0929 23.3695 25.4533 22.9805 25.8423 22.6258C26.0769 22.3684 26.3229 22.1224 26.5803 21.8878C26.7862 21.6647 26.9979 21.4473 27.2153 21.2357C27.5414 20.8924 27.8789 20.5663 28.2222 20.246C28.3709 20.0972 28.5139 19.9313 28.6627 19.7769C28.84 19.5995 29.0288 19.4336 29.2119 19.2563C29.3663 19.1075 29.4922 18.9302 29.6581 18.7929C29.8755 18.6041 30.0586 18.3867 30.276 18.1922C30.4647 18.0263 30.6249 17.8261 30.8023 17.6487C30.9796 17.4714 31.1684 17.2997 31.3457 17.1224C31.6375 16.8135 31.935 16.5103 32.2496 16.2242C32.3698 16.1041 32.4842 15.9668 32.6043 15.8466C32.7931 15.6636 32.9876 15.4862 33.1707 15.2974C33.657 14.8169 34.1261 14.3135 34.6295 13.8444C34.8126 13.6499 34.9956 13.4553 35.1901 13.2723C35.4304 13.0148 35.6821 12.7688 35.9453 12.5286C36.1798 12.2826 36.4144 12.0309 36.6661 11.802C37.0952 11.3787 37.5242 10.9553 37.9419 10.5148C38.2393 10.2231 38.5197 9.88555 38.9258 9.74253C49.0288 9.53658 59.189 9.74253 69.3091 9.66816L69.3034 9.66244Z" fill="#DCDCDC"/>
<path d="M80.6584 21.2471C84.56 21.2471 87.0714 18.3581 86.8026 14.3077H80.1321V16.3844H83.965C83.6275 17.8203 82.409 18.7814 80.687 18.7814C78.965 18.7814 77.1401 17.2311 77.1401 15.1029C77.1401 12.9748 78.576 11.4244 80.6527 11.4244C82.7293 11.4244 83.0669 12.0308 83.639 13.0606H86.528C85.8186 10.5777 83.4731 8.95874 80.6012 8.95874C77.7293 8.95874 74.457 11.5102 74.457 15.1029C74.457 18.6956 77.0257 21.2471 80.6527 21.2471H80.6584Z" fill="white"/>
<path d="M92.7651 21.2471C95.8371 21.2471 97.7136 19.3249 97.7136 16.1499V9.19336H95.0305V15.9611C95.0305 17.7689 94.2696 18.6956 92.7651 18.6956C91.2605 18.6956 90.5053 17.7689 90.5053 15.9611V9.19336H87.8223V16.1499C87.8223 19.3249 89.6987 21.2471 92.7708 21.2471H92.7651Z" fill="white"/>
<path d="M98.1699 21.0126H101.042L101.837 18.9702H106.528L107.323 21.0126H110.195L105.504 9.19336H102.872L98.1756 21.0126H98.1699ZM102.523 16.8593L104.177 12.54L105.847 16.8593H102.523Z" fill="white"/>
<path d="M110.768 21.0126H113.451V17.3341H115.224L117.335 21.0126H120.441L117.993 16.9108C119.412 16.2872 120.241 15 120.241 13.2609C120.241 10.7437 118.519 9.19336 115.819 9.19336H110.768V21.0126ZM113.416 15.0686V11.4874H115.459C116.774 11.4874 117.518 12.1281 117.518 13.278C117.518 14.4279 116.774 15.0686 115.459 15.0686H113.416Z" fill="white"/>
<path d="M121.654 21.0126H126.334C130.064 21.0126 132.564 18.6327 132.564 15.103C132.564 11.5732 130.064 9.19336 126.334 9.19336H121.654V21.0126ZM124.337 18.5469V11.659H126.248C128.376 11.659 129.812 13.0263 129.812 15.103C129.812 17.1796 128.376 18.5469 126.282 18.5469H124.343H124.337Z" fill="white"/>
<path d="M133.691 21.0126H136.374V9.19336H133.691V21.0126Z" fill="white"/>
<path d="M138.215 21.0126H140.881V13.77L146.098 21.0126H148.381V9.19336H145.715V16.3844L140.497 9.19336H138.221V21.0126H138.215Z" fill="white"/>
<path d="M155.729 21.2471C159.63 21.2471 162.142 18.3581 161.873 14.3077H155.202V16.3844H159.035C158.698 17.8203 157.479 18.7814 155.757 18.7814C154.035 18.7814 152.21 17.2311 152.21 15.1029C152.21 12.9748 153.646 11.4244 155.723 11.4244C157.8 11.4244 158.137 12.0308 158.709 13.0606H161.598C160.889 10.5777 158.543 8.95874 155.672 8.95874C152.8 8.95874 149.527 11.5102 149.527 15.1029C149.527 18.6956 152.096 21.2471 155.723 21.2471H155.729Z" fill="white"/>
<path d="M163.004 21.0126H170.956V18.7357H165.67V16.1499H170.315V13.9016H165.67V11.4531H170.767V9.19336H162.998V21.0126H163.004Z" fill="white"/>
<path d="M172.238 21.0126H174.921V17.3341H176.695L178.806 21.0126H181.912L179.464 16.9108C180.882 16.2872 181.712 15 181.712 13.2609C181.712 10.7437 179.99 9.19336 177.29 9.19336H172.238V21.0126ZM174.887 15.0686V11.4874H176.929C178.245 11.4874 178.989 12.1281 178.989 13.278C178.989 14.4279 178.245 15.0686 176.929 15.0686H174.887Z" fill="white"/>
<path d="M74.8691 33.5698H76.1334L76.9973 31.4302H81.5854L82.4721 33.5698H83.725L79.852 24.1533H78.7479L74.8749 33.5698H74.8691ZM77.4492 30.3318L79.2913 25.8124L81.1334 30.3318H77.4435H77.4492Z" fill="white"/>
<path d="M85.1328 33.5698H88.388C91.2827 33.5698 93.2163 31.6476 93.2163 28.8616C93.2163 26.0755 91.277 24.1533 88.388 24.1533H85.1328V33.5698ZM86.317 32.4428V25.286H88.3365C90.5275 25.286 92.0092 26.7277 92.0092 28.8673C92.0092 31.0069 90.5447 32.4485 88.388 32.4485H86.317V32.4428Z" fill="white"/>
<path d="M97.7919 33.5698H98.896L102.637 24.1533H101.385L99.8114 28.1236L98.3468 31.865L96.8651 28.1236L95.3034 24.1533H94.0391L97.7919 33.5698Z" fill="white"/>
<path d="M102.908 33.5698H104.173L105.036 31.4302H109.624L110.511 33.5698H111.764L107.891 24.1533H106.787L102.914 33.5698H102.908ZM105.488 30.3318L107.33 25.8124L109.173 30.3318H105.483H105.488Z" fill="white"/>
<path d="M113.17 33.5698H114.343V26.1957L119.549 33.5698H120.653V24.1533H119.497V31.5275L114.291 24.1533H113.176V33.5698H113.17Z" fill="white"/>
<path d="M127.381 33.7472C129.669 33.7472 131.523 32.3628 132.089 30.2633H130.836C130.35 31.6763 129.017 32.563 127.421 32.563C125.825 32.563 123.828 31.0413 123.828 28.8617C123.828 26.682 125.321 25.1603 127.421 25.1603C129.52 25.1603 130.258 25.9955 130.745 27.3514H132.009C131.391 25.2804 129.6 23.9761 127.381 23.9761C125.161 23.9761 122.615 26.0241 122.615 28.8617C122.615 31.6992 124.606 33.7472 127.381 33.7472Z" fill="white"/>
<path d="M134 33.5699H139.864V32.4658H135.184V29.3193H139.383V28.2267H135.184V25.2518H139.721V24.1477H134V33.5642V33.5699Z" fill="white"/>
<path d="M141.924 33.5698H145.179C148.074 33.5698 150.007 31.6476 150.007 28.8616C150.007 26.0755 148.068 24.1533 145.179 24.1533H141.924V33.5698ZM143.108 32.4428V25.286H145.127C147.319 25.286 148.8 26.7277 148.8 28.8673C148.8 31.0069 147.336 32.4485 145.179 32.4485H143.108V32.4428Z" fill="white"/>
<path d="M78.2842 46.3157H79.4684V38.0263H82.6434V36.8936H75.0977V38.0263H78.2842V46.3157Z" fill="white"/>
<path d="M84.2969 46.3157H90.1607V45.2116H85.4811V42.0652H89.6802V40.9725H85.4811V37.9977H90.0177V36.8936H84.2969V46.31V46.3157Z" fill="white"/>
<path d="M96.3963 46.4931C98.6846 46.4931 100.538 45.1086 101.105 43.0091H99.8517C99.3654 44.4222 98.0325 45.3089 96.4364 45.3089C94.8402 45.3089 92.8437 43.7871 92.8437 41.6075C92.8437 39.4279 94.3368 37.9061 96.4364 37.9061C98.5359 37.9061 99.2739 38.7414 99.7602 40.0972H101.024C100.407 38.0263 98.616 36.7219 96.3963 36.7219C94.1766 36.7219 91.6309 38.77 91.6309 41.6075C91.6309 44.445 93.6217 46.4931 96.3963 46.4931Z" fill="white"/>
<path d="M109.188 46.3159H110.372V36.8994H109.188V40.9498H104.194V36.8994H103.01V46.3159H104.194V42.0768H109.188V46.3159Z" fill="white"/>
<path d="M112.93 46.3159H114.102V38.9417L119.308 46.3159H120.413V36.8994H119.257V44.2736L114.051 36.8994H112.935V46.3159H112.93Z" fill="white"/>
<path d="M127.243 46.4931C130.11 46.4931 132.129 44.4736 132.129 41.6075C132.129 38.7414 130.11 36.7219 127.243 36.7219C124.377 36.7219 122.375 38.7414 122.375 41.6075C122.375 44.4736 124.377 46.4931 127.243 46.4931ZM123.588 41.6075C123.588 39.4164 125.081 37.9061 127.249 37.9061C129.417 37.9061 130.91 39.4164 130.91 41.6075C130.91 43.7986 129.417 45.3089 127.249 45.3089C125.081 45.3089 123.588 43.8043 123.588 41.6075Z" fill="white"/>
<path d="M134.08 46.3157H139.841V45.183H135.264V36.8936H134.08V46.31V46.3157Z" fill="white"/>
<path d="M145.716 46.4931C148.582 46.4931 150.602 44.4736 150.602 41.6075C150.602 38.7414 148.582 36.7219 145.716 36.7219C142.85 36.7219 140.848 38.7414 140.848 41.6075C140.848 44.4736 142.85 46.4931 145.716 46.4931ZM142.055 41.6075C142.055 39.4164 143.548 37.9061 145.716 37.9061C147.884 37.9061 149.377 39.4164 149.377 41.6075C149.377 43.7986 147.884 45.3089 145.716 45.3089C143.548 45.3089 142.055 43.8043 142.055 41.6075Z" fill="white"/>
<path d="M156.751 46.4932C159.646 46.4932 161.597 44.3022 161.539 41.2072H156.425V42.3399H160.258C160.018 44.1191 158.668 45.3147 156.774 45.3147C154.88 45.3147 153.17 43.793 153.17 41.6134C153.17 39.4337 154.652 37.912 156.763 37.912C158.874 37.912 159.371 38.6271 159.966 39.8342H161.259C160.653 37.9749 158.879 36.7278 156.722 36.7278C154.566 36.7278 151.957 38.7873 151.957 41.6134C151.957 44.4395 153.976 46.4989 156.745 46.4989L156.751 46.4932Z" fill="white"/>
<path d="M163.463 46.3159H164.647V36.8994H163.463V46.3159Z" fill="white"/>
<path d="M167.203 46.3157H173.067V45.2116H168.387V42.0652H172.586V40.9725H168.387V37.9977H172.924V36.8936H167.203V46.31V46.3157Z" fill="white"/>
<path d="M178.262 46.4931C180.322 46.4931 181.655 45.4862 181.655 43.8443C181.655 42.2025 180.728 41.6247 178.319 41.0297C176.489 40.5835 175.882 40.1029 175.882 39.3192C175.882 38.5354 176.689 37.8546 178.033 37.8546C179.378 37.8546 180.282 38.5526 180.31 39.6853H181.483C181.471 37.8546 180.15 36.7219 178.039 36.7219C175.928 36.7219 174.675 37.7288 174.675 39.3192C174.675 40.9096 175.711 41.5789 178.028 42.1281C179.721 42.5343 180.436 43.0034 180.436 43.8787C180.436 44.754 179.601 45.3604 178.268 45.3604C176.935 45.3604 175.779 44.6338 175.751 43.421H174.566C174.584 45.2631 176.02 46.4874 178.268 46.4874L178.262 46.4931Z" fill="white"/>
<path fill-rule="evenodd" clip-rule="evenodd" d="M69.2576 24.9429C69.2615 24.9429 69.2653 24.9428 69.2691 24.9428H69.2576V24.9429ZM24.6905 46.2849C29.8517 46.2982 35.0129 46.3085 40.1787 46.2929C43.6951 46.2309 47.2092 46.2387 50.7239 46.2466C52.7157 46.251 54.7077 46.2555 56.7004 46.2472C56.7348 46.2472 56.7691 46.2472 56.7977 46.2357C57.0322 46.1499 57.2782 46.0527 57.467 45.8868C57.8503 45.5244 58.2187 45.1472 58.5864 44.7707C58.8225 44.5289 59.0584 44.2875 59.2977 44.0504C59.5654 43.7859 59.8335 43.5216 60.1017 43.2572C61.2662 42.1093 62.4319 40.9602 63.5711 39.7884L64.7039 38.6556C64.7954 38.566 64.8863 38.4758 64.9771 38.3855C65.159 38.205 65.3408 38.0245 65.5277 37.849C65.6478 37.7346 65.8023 37.6488 65.9682 37.6373C66.0981 37.6297 66.2305 37.6323 66.3621 37.6348C66.4275 37.6361 66.4928 37.6373 66.5574 37.6373C66.5975 37.6373 66.6432 37.6488 66.6776 37.6659C66.8263 37.746 66.9808 37.8318 67.1123 37.9405C67.2153 38.0407 67.3169 38.1422 67.4184 38.2437C67.52 38.3453 67.6215 38.4468 67.7245 38.5469C67.8531 38.6756 67.9817 38.8046 68.1105 38.9336C68.497 39.3212 68.8843 39.7096 69.2748 40.0916C69.2786 38.9819 69.2846 37.8678 69.2907 36.7513C69.312 32.814 69.3334 28.8472 69.2576 24.9429C67.2431 24.9542 65.2258 24.9474 63.2087 24.9405C60.1774 24.9302 57.1466 24.9199 54.1261 24.9714C54.6277 25.4645 55.1132 25.951 55.6019 26.4408C55.7654 26.6046 55.9292 26.7688 56.094 26.9337C56.1627 27.0023 56.2313 27.0652 56.2999 27.1281L56.3 27.1282C56.3839 27.2075 56.4375 27.3096 56.4916 27.4128C56.5039 27.4362 56.5161 27.4596 56.5288 27.4829C56.6143 27.6424 56.609 27.8019 56.6033 27.9727L56.6032 27.9749C56.6032 28.0052 56.6049 28.0363 56.6065 28.0676C56.6131 28.1899 56.6199 28.3164 56.5288 28.4211C56.5174 28.5298 56.4544 28.6213 56.3915 28.7014C56.3229 28.7987 56.2313 28.8845 56.1455 28.9646C56.0425 29.0656 55.9408 29.168 55.8391 29.2703C55.6357 29.475 55.4323 29.6797 55.2187 29.8742C54.6415 30.4365 54.0736 31.0097 53.506 31.5825C52.9824 32.1109 52.4591 32.639 51.9293 33.1579C50.4105 34.6939 48.8821 36.2201 47.3536 37.7464C46.844 38.2553 46.3344 38.7642 45.8251 39.2735C44.6123 40.4634 43.411 41.6648 42.2153 42.8662C41.8892 43.2094 41.4888 43.2266 41.0483 43.2094C39.3243 43.2053 37.5995 43.1976 35.8746 43.1899C32.7685 43.1759 29.6618 43.162 26.5574 43.1694L24.6905 46.2849Z" fill="url(#paint0_linear_441_1677)"/>
<path d="M26.5574 43.1694C26.2542 43.1579 25.9625 43.1236 25.7336 42.9005C25.6135 42.7861 25.4762 42.6774 25.4476 42.5C25.3904 42.3742 25.3103 42.2483 25.2988 42.0996C25.2817 41.8021 25.3732 41.4646 25.5734 41.2415C25.8366 40.9611 26.1112 40.698 26.3801 40.4234C27.2496 39.5424 28.1306 38.6785 29.0002 37.7975C29.4293 37.3742 23.2222 43.4497 23.6512 43.0264L16.3457 32.0996C15.7451 32.6831 15.1558 33.2781 14.5608 33.8673C13.6455 34.754 12.7702 35.6808 11.8549 36.5675C11.0483 37.3685 10.2645 38.1923 9.44071 38.976C9.32058 39.1019 9.20616 39.2334 9.08602 39.3536C8.96588 39.4737 8.82286 39.5824 8.70845 39.7083C8.27366 40.1488 7.85604 40.6064 7.39838 41.0241C7.2382 41.1671 7.10662 41.3387 6.95215 41.4874C6.77481 41.6648 6.58602 41.8307 6.40296 42.008C6.07687 42.3399 5.75078 42.6774 5.41897 43.0035C5.24163 43.1808 5.06428 43.3639 4.88694 43.5412C4.66382 43.7643 4.42927 43.9817 4.2176 44.222C4.03453 44.428 3.9144 44.6682 3.92012 44.9543C3.93156 45.0916 3.90868 45.2403 3.94872 45.3776C4.01737 45.5264 4.07458 45.6865 4.18328 45.8067C4.28625 45.9211 4.39495 46.0355 4.53797 46.1099C4.61234 46.1499 4.69243 46.1614 4.75536 46.2014C4.85261 46.2643 4.95559 46.2586 5.05856 46.2643H6.00822C12.2414 46.2487 18.466 46.269 24.6905 46.2849L26.5574 43.1694Z" fill="#DCDCDC"/>
<defs>
<linearGradient id="paint0_linear_441_1677" x1="25.5678" y1="46.9659" x2="72.5337" y2="31.1748" gradientUnits="userSpaceOnUse">
<stop stop-color="#DCDCDC"/>
<stop offset="0.149628" stop-color="#C9CEDE"/>
<stop offset="0.220931" stop-color="#BEC6DF"/>
<stop offset="0.239783" stop-color="#BBC3DF"/>
<stop offset="0.309413" stop-color="#A8B5E1"/>
<stop offset="0.364297" stop-color="#97A7E2"/>
<stop offset="0.464183" stop-color="#8298E4"/>
<stop offset="0.550951" stop-color="#6D88E6"/>
<stop offset="0.613177" stop-color="#5B7BE8"/>
<stop offset="0.7057" stop-color="#4B6EE9"/>
<stop offset="0.790056" stop-color="#355EEB"/>
<stop offset="0.94398" stop-color="#1646EE"/>
</linearGradient>
</defs>
</svg>
