<svg width="248" height="68" viewBox="0 0 248 68" fill="none" xmlns="http://www.w3.org/2000/svg">
<path d="M85.9349 12.5697C85.9775 12.7754 85.9704 16.2585 85.9207 16.4217C79.7349 16.4288 73.542 16.4075 67.3562 16.4288C67.2923 16.4288 67.2214 16.4217 67.1717 16.4855C67.1576 16.5068 67.1221 16.521 67.0937 16.521C66.9093 16.5281 66.81 16.677 66.6894 16.7835C66.3205 17.1169 65.9942 17.4999 65.6324 17.8475C65.0862 18.4008 64.5116 18.9329 63.9653 19.4862C63.6461 19.8338 63.3127 20.1672 62.9651 20.4793C60.5887 22.8345 58.2335 25.218 55.8784 27.5944C49.2173 34.2059 42.6271 40.8812 35.9447 47.4713C34.8665 48.5638 33.774 49.6349 32.6958 50.7274C32.3624 51.0608 32.0219 51.3942 31.6955 51.7418C31.4473 52.0185 31.3338 52.437 31.355 52.8059C31.3692 52.9903 31.4685 53.1393 31.5395 53.3024C31.575 53.5224 31.7452 53.6571 31.8942 53.799C32.1779 54.0686 32.5468 54.1182 32.9157 54.1324C38.91 54.1182 44.8971 54.1679 50.8843 54.1821C51.4306 54.2034 51.9271 54.1821 52.3315 53.7565C53.8212 52.2668 55.3038 50.7771 56.8077 49.3015C59.3331 46.7761 61.8656 44.2578 64.3768 41.7182C65.7459 40.3704 67.0795 38.98 68.4557 37.6464C68.853 37.2775 69.2219 36.8944 69.6049 36.5185C69.7113 36.4121 69.8177 36.3127 69.91 36.1922C69.988 36.0928 70.0731 35.9793 70.0802 35.8446C70.2221 35.6814 70.1653 35.4757 70.1724 35.2912C70.1795 35.0855 70.1795 34.8798 70.0802 34.6812C69.9951 34.5251 69.9241 34.3619 69.7965 34.2413C69.7113 34.1633 69.6191 34.0853 69.5411 34.0002C68.7182 33.1844 67.9237 32.3828 67.1008 31.567C73.3434 31.4606 79.6214 31.567 85.8781 31.5315C85.9987 37.7457 85.9207 44.0876 85.8994 50.316C85.2539 49.6846 84.6155 49.0391 83.977 48.4006C83.7216 48.1452 83.4733 47.897 83.218 47.6487C83.0548 47.5139 82.8633 47.4075 82.6788 47.3082C82.6363 47.2869 82.5795 47.2798 82.5299 47.2727C82.2887 47.2727 82.0404 47.2585 81.7992 47.2727C81.5864 47.2869 81.402 47.3862 81.253 47.5352C80.9054 47.8615 80.572 48.202 80.2315 48.5354C79.7633 49.0036 79.2951 49.4718 78.8269 49.94C77.0889 51.7276 75.3013 53.4727 73.5278 55.2249C72.7617 55.9768 72.031 56.7642 71.2578 57.502C71.0166 57.7077 70.7187 57.8283 70.4278 57.9347C70.3923 57.9489 70.3498 57.9489 70.3072 57.9489C63.4759 57.9773 56.6516 57.8851 49.8203 58.0057C35.6894 58.0482 21.5868 57.9347 7.44886 57.9702C7.0587 57.9702 6.66854 57.9702 6.27129 57.9702C6.1436 57.9702 6.01591 57.9702 5.89532 57.8922C5.81728 57.8425 5.71088 57.8283 5.62575 57.7787C5.44131 57.6864 5.31362 57.5446 5.18593 57.4027C5.04406 57.2466 4.98021 57.0551 4.89509 56.8706C4.84543 56.7004 4.87381 56.523 4.85962 56.3457C4.85252 55.991 5.00149 55.6931 5.2285 55.4377C5.49097 55.1468 5.78181 54.8773 6.05847 54.5935C6.27838 54.3736 6.49829 54.1466 6.7182 53.9267C7.12964 53.5224 7.53399 53.1038 7.93834 52.6924C8.15824 52.4725 8.39234 52.2668 8.61934 52.0468C8.81088 51.8624 8.97403 51.6496 9.17266 51.4722C9.74017 50.9544 10.258 50.3869 10.7971 49.8407C10.9461 49.6846 11.1164 49.5569 11.2653 49.4008C11.4143 49.2519 11.5562 49.0816 11.7052 48.9327C12.7267 47.9608 13.6985 46.9393 14.6987 45.9462C15.8338 44.8466 16.9262 43.7045 18.0541 42.5979C18.8486 41.8176 19.6219 41.0159 20.4306 40.2498C20.7001 39.959 20.9839 39.6752 21.2676 39.3915C21.4663 39.1716 21.672 38.9587 21.8848 38.7601C22.2679 38.4267 22.5871 38.0365 22.9701 37.7031C23.7079 36.9583 24.4528 36.2134 25.1905 35.4686C25.6303 35.0571 26.0489 34.6173 26.4816 34.1917C26.8221 33.8583 27.1697 33.5249 27.496 33.1773C28.1841 32.475 28.8935 31.794 29.5816 31.0988C29.9505 30.7512 30.3052 30.3894 30.6457 30.0205C31.1138 29.5665 31.5608 29.0841 32.0431 28.6443C32.334 28.3251 32.639 28.0201 32.9582 27.7292C33.2136 27.4526 33.4761 27.183 33.7457 26.9205C34.15 26.4949 34.5685 26.0905 34.9942 25.6933C35.1786 25.5089 35.356 25.3031 35.5404 25.1116C35.7603 24.8917 35.9944 24.686 36.2214 24.4661C36.4129 24.2816 36.569 24.0617 36.7747 23.8915C37.0443 23.6574 37.2713 23.3878 37.5409 23.1466C37.7749 22.9409 37.9736 22.6926 38.1935 22.4727C38.4134 22.2528 38.6475 22.04 38.8674 21.8201C39.2292 21.437 39.5981 21.061 39.9882 20.7063C40.1372 20.5574 40.2791 20.3871 40.428 20.2381C40.6621 20.0111 40.9033 19.7912 41.1303 19.5571C41.7333 18.9613 42.315 18.337 42.9393 17.7553C43.1663 17.5141 43.3933 17.2729 43.6344 17.0459C43.9324 16.7267 44.2445 16.4217 44.5708 16.1237C44.8617 15.8187 45.1525 15.5066 45.4647 15.2228C45.9967 14.6979 46.5287 14.1729 47.0466 13.6267C47.4155 13.2649 47.7631 12.8464 48.2667 12.669C60.7944 12.4137 73.393 12.669 85.942 12.5768L85.9349 12.5697Z" fill="black"/>
<path d="M100.016 26.9345C104.854 26.9345 107.968 23.3522 107.635 18.3297H99.3632V20.9048H104.116C103.698 22.6853 102.187 23.8771 100.051 23.8771C97.9161 23.8771 95.6532 21.9547 95.6532 19.3158C95.6532 16.6769 97.4337 14.7545 100.009 14.7545C102.584 14.7545 103.002 15.5064 103.712 16.7833H107.294C106.415 13.7046 103.506 11.697 99.9449 11.697C96.3838 11.697 92.3262 14.8609 92.3262 19.3158C92.3262 23.7707 95.5113 26.9345 100.009 26.9345H100.016Z" fill="#1544EA"/>
<path d="M115.028 26.9347C118.837 26.9347 121.164 24.5512 121.164 20.6141V11.988H117.837V20.38C117.837 22.6217 116.893 23.7709 115.028 23.7709C113.162 23.7709 112.225 22.6217 112.225 20.38V11.988H108.898V20.6141C108.898 24.5512 111.225 26.9347 115.035 26.9347H115.028Z" fill="#1544EA"/>
<path d="M121.73 26.6439H125.292L126.278 24.1114H132.095L133.081 26.6439H136.642L130.825 11.988H127.562L121.738 26.6439H121.73ZM127.129 21.4938L129.179 16.1379L131.25 21.4938H127.129Z" fill="#1544EA"/>
<path d="M137.352 26.6439H140.679V22.0825H142.878L145.495 26.6439H149.347L146.311 21.5576C148.07 20.7844 149.099 19.1883 149.099 17.0317C149.099 13.9105 146.964 11.988 143.615 11.988H137.352V26.6439ZM140.636 19.2734V14.8327H143.168C144.8 14.8327 145.722 15.6272 145.722 17.053C145.722 18.4789 144.8 19.2734 143.168 19.2734H140.636Z" fill="#1544EA"/>
<path d="M150.852 26.6439H156.654C161.279 26.6439 164.379 23.6928 164.379 19.316C164.379 14.9391 161.279 11.988 156.654 11.988H150.852V26.6439ZM154.179 23.5864V15.0455H156.548C159.187 15.0455 160.967 16.7409 160.967 19.316C160.967 21.891 159.187 23.5864 156.59 23.5864H154.186H154.179Z" fill="#1544EA"/>
<path d="M165.775 26.6439H169.102V11.988H165.775V26.6439Z" fill="#1544EA"/>
<path d="M171.387 26.6439H174.692V17.6631L181.162 26.6439H183.992V11.988H180.687V20.905L174.217 11.988H171.394V26.6439H171.387Z" fill="#1544EA"/>
<path d="M193.102 26.9345C197.94 26.9345 201.054 23.3522 200.721 18.3297H192.449V20.9048H197.202C196.784 22.6853 195.273 23.8771 193.137 23.8771C191.002 23.8771 188.739 21.9547 188.739 19.3158C188.739 16.6769 190.52 14.7545 193.095 14.7545C195.67 14.7545 196.088 15.5064 196.798 16.7833H200.38C199.5 13.7046 196.592 11.697 193.031 11.697C189.47 11.697 185.412 14.8609 185.412 19.3158C185.412 23.7707 188.597 26.9345 193.095 26.9345H193.102Z" fill="#1544EA"/>
<path d="M202.124 26.6439H211.985V23.8205H205.43V20.6141H211.19V17.8263H205.43V14.7901H211.751V11.988H202.117V26.6439H202.124Z" fill="#1544EA"/>
<path d="M213.574 26.6439H216.901V22.0825H219.1L221.718 26.6439H225.57L222.534 21.5576C224.293 20.7844 225.322 19.1883 225.322 17.0317C225.322 13.9105 223.186 11.988 219.838 11.988H213.574V26.6439ZM216.859 19.2734V14.8327H219.391C221.023 14.8327 221.945 15.6272 221.945 17.053C221.945 18.4789 221.023 19.2734 219.391 19.2734H216.859Z" fill="#1544EA"/>
<path d="M92.8379 42.2148H94.4056L95.4768 39.5617H101.166L102.266 42.2148H103.819L99.0166 30.5383H97.6475L92.845 42.2148H92.8379ZM96.0372 38.1997L98.3214 32.5955L100.606 38.1997H96.0301H96.0372Z" fill="black"/>
<path d="M105.562 42.2148H109.599C113.188 42.2148 115.586 39.8312 115.586 36.3765C115.586 32.9219 113.181 30.5383 109.599 30.5383H105.562V42.2148ZM107.031 40.8173V31.9429H109.535C112.252 31.9429 114.089 33.7305 114.089 36.3836C114.089 39.0367 112.273 40.8244 109.599 40.8244H107.031V40.8173Z" fill="black"/>
<path d="M121.263 42.2148H122.632L127.271 30.5383H125.718L123.767 35.4614L121.951 40.1008L120.114 35.4614L118.177 30.5383H116.609L121.263 42.2148Z" fill="black"/>
<path d="M127.604 42.2148H129.171L130.242 39.5617H135.932L137.031 42.2148H138.585L133.782 30.5383H132.413L127.611 42.2148H127.604ZM130.803 38.1997L133.087 32.5955L135.371 38.1997H130.796H130.803Z" fill="black"/>
<path d="M140.33 42.2148H141.784V33.0708L148.24 42.2148H149.609V30.5383H148.176V39.6823L141.72 30.5383H140.337V42.2148H140.33Z" fill="black"/>
<path d="M157.95 42.4346C160.788 42.4346 163.086 40.7179 163.788 38.1145H162.235C161.632 39.8666 159.979 40.9662 158 40.9662C156.021 40.9662 153.545 39.0792 153.545 36.3765C153.545 33.6737 155.396 31.7868 158 31.7868C160.603 31.7868 161.518 32.8225 162.121 34.5037H163.689C162.923 31.9358 160.703 30.3184 157.95 30.3184C155.198 30.3184 152.041 32.8579 152.041 36.3765C152.041 39.895 154.51 42.4346 157.95 42.4346Z" fill="black"/>
<path d="M166.158 42.2148H173.429V40.8457H167.627V36.9441H172.833V35.5891H167.627V31.9004H173.252V30.5312H166.158V42.2077V42.2148Z" fill="black"/>
<path d="M175.984 42.2148H180.021C183.61 42.2148 186.008 39.8312 186.008 36.3765C186.008 32.9219 183.603 30.5383 180.021 30.5383H175.984V42.2148ZM177.453 40.8173V31.9429H179.957C182.674 31.9429 184.511 33.7305 184.511 36.3836C184.511 39.0367 182.695 40.8244 180.021 40.8244H177.453V40.8173Z" fill="black"/>
<path d="M97.0724 58.0199H98.5408V47.741H102.478V46.3364H93.1211V47.741H97.0724V58.0199Z" fill="black"/>
<path d="M104.527 58.0199H111.799V56.6508H105.996V52.7492H111.203V51.3943H105.996V47.7055H111.621V46.3364H104.527V58.0129V58.0199Z" fill="black"/>
<path d="M119.532 58.2398C122.37 58.2398 124.668 56.5231 125.37 53.9196H123.817C123.214 55.6718 121.561 56.7714 119.582 56.7714C117.603 56.7714 115.127 54.8844 115.127 52.1817C115.127 49.4789 116.978 47.592 119.582 47.592C122.185 47.592 123.1 48.6277 123.703 50.3089H125.271C124.505 47.7409 122.285 46.1235 119.532 46.1235C116.78 46.1235 113.623 48.6631 113.623 52.1817C113.623 55.7002 116.092 58.2398 119.532 58.2398Z" fill="black"/>
<path d="M135.394 58.0199H136.862V46.3435H135.394V51.3659H129.201V46.3435H127.732V58.0199H129.201V52.7634H135.394V58.0199Z" fill="black"/>
<path d="M140.033 58.0199H141.487V48.876L147.943 58.0199H149.312V46.3435H147.879V55.4874L141.424 46.3435H140.04V58.0199H140.033Z" fill="black"/>
<path d="M157.781 58.2398C161.335 58.2398 163.839 55.7357 163.839 52.1817C163.839 48.6277 161.335 46.1235 157.781 46.1235C154.227 46.1235 151.744 48.6277 151.744 52.1817C151.744 55.7357 154.227 58.2398 157.781 58.2398ZM153.248 52.1817C153.248 49.4647 155.1 47.592 157.788 47.592C160.477 47.592 162.328 49.4647 162.328 52.1817C162.328 54.8986 160.477 56.7714 157.788 56.7714C155.1 56.7714 153.248 54.9057 153.248 52.1817Z" fill="black"/>
<path d="M166.258 58.0199H173.401V56.6154H167.726V46.3364H166.258V58.0129V58.0199Z" fill="black"/>
<path d="M180.685 58.2398C184.239 58.2398 186.743 55.7357 186.743 52.1817C186.743 48.6277 184.239 46.1235 180.685 46.1235C177.131 46.1235 174.648 48.6277 174.648 52.1817C174.648 55.7357 177.131 58.2398 180.685 58.2398ZM176.145 52.1817C176.145 49.4647 177.997 47.592 180.685 47.592C183.374 47.592 185.225 49.4647 185.225 52.1817C185.225 54.8986 183.374 56.7714 180.685 56.7714C177.997 56.7714 176.145 54.9057 176.145 52.1817Z" fill="black"/>
<path d="M194.37 58.2398C197.96 58.2398 200.379 55.5228 200.308 51.6851H193.966V53.0897H198.719C198.421 55.2958 196.747 56.7784 194.399 56.7784C192.051 56.7784 189.93 54.8915 189.93 52.1887C189.93 49.486 191.767 47.599 194.385 47.599C197.002 47.599 197.619 48.4858 198.357 49.9826H199.96C199.208 47.6771 197.009 46.1306 194.335 46.1306C191.661 46.1306 188.426 48.6844 188.426 52.1887C188.426 55.6931 190.93 58.2469 194.363 58.2469L194.37 58.2398Z" fill="black"/>
<path d="M202.691 58.0199H204.16V46.3435H202.691V58.0199Z" fill="black"/>
<path d="M207.33 58.0199H214.601V56.6508H208.798V52.7492H214.005V51.3943H208.798V47.7055H214.424V46.3364H207.33V58.0129V58.0199Z" fill="black"/>
<path d="M221.044 58.2398C223.597 58.2398 225.25 56.9913 225.25 54.9553C225.25 52.9194 224.101 52.2029 221.114 51.4652C218.844 50.9119 218.093 50.316 218.093 49.3441C218.093 48.3723 219.093 47.5281 220.76 47.5281C222.427 47.5281 223.548 48.3936 223.583 49.7981H225.037C225.023 47.5281 223.385 46.1235 220.767 46.1235C218.149 46.1235 216.596 47.372 216.596 49.3441C216.596 51.3162 217.88 52.1462 220.753 52.8272C222.852 53.3309 223.739 53.9125 223.739 54.9979C223.739 56.0833 222.704 56.8352 221.051 56.8352C219.398 56.8352 217.965 55.9343 217.929 54.4304H216.461C216.482 56.7146 218.263 58.2327 221.051 58.2327L221.044 58.2398Z" fill="black"/>
<path fill-rule="evenodd" clip-rule="evenodd" d="M85.8782 31.5174C85.8829 31.5174 85.8876 31.5174 85.8923 31.5174H85.8782ZM30.6149 57.9816C37.0148 57.9981 43.4146 58.0109 49.8203 57.9916C54.1806 57.9146 58.5381 57.9243 62.8963 57.934C65.3661 57.9396 67.8362 57.9451 70.3072 57.9348C70.3498 57.9348 70.3923 57.9348 70.4278 57.9206C70.7187 57.8142 71.0237 57.6936 71.2578 57.4879C71.733 57.0386 72.1898 56.5709 72.6459 56.1039C72.9386 55.8042 73.231 55.5048 73.5278 55.2108C73.8598 54.8828 74.1922 54.5551 74.5248 54.2273C75.9688 52.8038 77.4142 51.3789 78.8269 49.9259L80.2315 48.5213C80.345 48.4102 80.4576 48.2983 80.5703 48.1864C80.7958 47.9625 81.0212 47.7386 81.253 47.5211C81.402 47.3792 81.5935 47.2728 81.7992 47.2586C81.9603 47.2491 82.1245 47.2523 82.2876 47.2555C82.3688 47.257 82.4497 47.2586 82.5299 47.2586C82.5795 47.2586 82.6363 47.2728 82.6788 47.2941C82.8633 47.3934 83.0548 47.4998 83.218 47.6346C83.3457 47.7587 83.4716 47.8846 83.5975 48.0105C83.7234 48.1365 83.8493 48.2624 83.977 48.3865C84.1365 48.546 84.296 48.706 84.4556 48.866C84.9349 49.3466 85.4152 49.8282 85.8994 50.3019C85.9041 48.9259 85.9116 47.5443 85.9191 46.1599C85.9455 41.2776 85.9721 36.3587 85.8782 31.5174C83.3801 31.5315 80.8786 31.5231 78.3774 31.5146C74.6187 31.5018 70.8605 31.489 67.115 31.5529C67.737 32.1642 68.339 32.7676 68.9451 33.375C69.1477 33.5781 69.3508 33.7816 69.5553 33.9861C69.6404 34.0712 69.7255 34.1493 69.8106 34.2273C69.9148 34.3256 69.9811 34.4522 70.0483 34.5802C70.0635 34.6092 70.0787 34.6383 70.0944 34.6671C70.2004 34.8649 70.1938 35.0627 70.1867 35.2745L70.1866 35.2771C70.1866 35.3148 70.1887 35.3533 70.1908 35.3922C70.1989 35.5438 70.2073 35.7006 70.0944 35.8305C70.0802 35.9652 70.0022 36.0787 69.9242 36.1781C69.839 36.2986 69.7255 36.4051 69.6191 36.5044C69.4914 36.6297 69.3653 36.7566 69.2392 36.8835C68.987 37.1373 68.7348 37.3911 68.4699 37.6323C67.7541 38.3296 67.0499 39.0404 66.3462 39.7506C65.6969 40.4059 65.048 41.0607 64.391 41.7041C62.5077 43.6087 60.6124 45.5013 58.7172 47.3939C58.0853 48.0249 57.4533 48.656 56.8219 49.2874C55.318 50.763 53.8283 52.2527 52.3457 53.7424C51.9413 54.168 51.4447 54.1893 50.8985 54.168C48.7608 54.1629 46.6221 54.1533 44.4832 54.1437C40.6317 54.1265 36.7793 54.1092 32.9299 54.1183L30.6149 57.9816Z" fill="url(#paint0_linear_294_1727)"/>
<path d="M32.9299 54.1183C32.5539 54.1041 32.1921 54.0616 31.9084 53.7849C31.7594 53.643 31.5891 53.5083 31.5537 53.2884C31.4827 53.1323 31.3834 52.9762 31.3692 52.7918C31.3479 52.4229 31.4615 52.0044 31.7097 51.7277C32.036 51.3801 32.3766 51.0538 32.71 50.7133C33.7882 49.6208 34.8807 48.5497 35.9589 47.4572C36.491 46.9323 28.7942 54.4659 29.3262 53.941L20.2674 40.3918C19.5225 41.1154 18.7919 41.8531 18.0541 42.5838C16.9191 43.6833 15.8338 44.8325 14.6987 45.9321C13.6985 46.9252 12.7267 47.9467 11.7052 48.9186C11.5562 49.0746 11.4143 49.2378 11.2653 49.3868C11.1164 49.5357 10.939 49.6705 10.7971 49.8266C10.258 50.3728 9.74017 50.9403 9.17266 51.4581C8.97403 51.6355 8.81088 51.8483 8.61934 52.0327C8.39943 52.2527 8.16534 52.4584 7.93834 52.6783C7.53399 53.0897 7.12964 53.5083 6.7182 53.9126C6.49829 54.1325 6.27838 54.3595 6.05847 54.5794C5.78181 54.8561 5.49097 55.1257 5.2285 55.4236C5.00149 55.679 4.85252 55.9769 4.85962 56.3316C4.87381 56.5019 4.84543 56.6863 4.89509 56.8565C4.98021 57.041 5.05115 57.2396 5.18593 57.3886C5.31362 57.5305 5.44841 57.6723 5.62575 57.7646C5.71797 57.8142 5.81728 57.8284 5.89532 57.8781C6.01591 57.9561 6.1436 57.949 6.27129 57.9561H7.44886C15.178 57.9367 22.8965 57.9618 30.6149 57.9816L32.9299 54.1183Z" fill="black"/>
<defs>
<linearGradient id="paint0_linear_294_1727" x1="31.7027" y1="58.826" x2="89.9404" y2="39.2451" gradientUnits="userSpaceOnUse">
<stop/>
<stop offset="0.94398" stop-color="#1646EE"/>
</linearGradient>
</defs>
</svg>
