<svg width="69" height="69" viewBox="0 0 69 69" fill="none" xmlns="http://www.w3.org/2000/svg">
<rect x="0.355469" y="0.484589" width="67.7696" height="67.7696" rx="33.8848" fill="black"/>
<path d="M48.6671 26.5199C48.6444 26.257 48.4712 26.0311 48.2238 25.9411C47.9758 25.8505 47.6981 25.9121 47.5115 26.0984L43.6937 29.916L39.4613 28.5759L38.1212 24.3436L41.9391 20.5257C42.126 20.3391 42.1869 20.0613 42.0969 19.8137C42.006 19.5656 41.7807 19.3928 41.5172 19.3701C39.1985 19.1703 36.9267 19.9981 35.2841 21.6409C33.0345 23.8907 32.4388 27.1761 33.4937 29.9764C33.3784 30.0736 33.2646 30.1765 33.1524 30.2875L20.4084 42.3129C20.4039 42.3173 20.3994 42.3221 20.3946 42.3264C18.8958 43.8252 18.8958 46.2639 20.3946 47.763C21.8936 49.2616 24.3144 49.2434 25.8129 47.7446C25.8193 47.7386 25.8253 47.7326 25.8312 47.7258L37.7517 34.8826C37.8603 34.7734 37.9612 34.6592 38.0564 34.542C40.8575 35.5988 44.1449 35.0045 46.3965 32.7532C48.0387 31.1103 48.8671 28.8383 48.6671 26.5199ZM23.8924 46.1439C23.3402 46.696 22.4457 46.6957 21.8935 46.1439C21.3415 45.5922 21.3415 44.697 21.8935 44.1452C22.4457 43.5934 23.3402 43.5934 23.8924 44.1452C24.4445 44.697 24.4445 45.5922 23.8924 46.1439Z" fill="white"/>
</svg>
