<svg width="69" height="68" viewBox="0 0 69 68" fill="none" xmlns="http://www.w3.org/2000/svg">
<rect x="0.355469" y="0.144775" width="67.7696" height="67.7696" rx="33.8848" fill="black"/>
<g clip-path="url(#clip0_125_2610)">
<path d="M39.2828 22.5509L48.5892 18.2539C48.9567 18.0865 49.3852 18.2462 49.5525 18.6138C49.5956 18.7102 49.6235 18.8141 49.6235 18.9206V42.8089C49.6235 43.0903 49.4663 43.326 49.2381 43.4477L39.6707 49.2252C39.6529 49.2328 39.6352 49.2506 39.6098 49.2607L39.6022 49.2683H39.5769C39.4881 49.3114 39.3918 49.3292 39.298 49.3292C39.2042 49.3292 39.1053 49.3114 39.0166 49.2683H38.9913L38.9836 49.2607C38.9659 49.2531 38.9406 49.243 38.9228 49.2252L29.6976 43.6581L20.4622 49.2354C20.1199 49.4458 19.6662 49.3317 19.4634 48.9894C19.3873 48.8728 19.3518 48.741 19.3518 48.6092V23.3545C19.3518 23.0401 19.5445 22.7765 19.8233 22.6725L29.3934 18.2615H29.4111L29.4288 18.2539H29.4364C29.5074 18.2285 29.5759 18.2108 29.6545 18.2108H29.7432C29.8142 18.2184 29.8928 18.2285 29.9612 18.2539H29.9688L29.9866 18.2615H30.0043L39.3107 22.5585L39.2828 22.5509ZM28.9446 42.3931V20.0538L20.7968 23.8184V47.3137L28.9446 42.3931ZM38.5578 47.3137V23.8184L30.4074 20.0538V42.3931L38.5578 47.3137ZM48.1683 20.0538L40.0205 23.8184V47.3137L48.1709 42.3931V20.0538H48.1683Z" fill="white"/>
</g>
<defs>
<clipPath id="clip0_125_2610">
<rect width="30.2691" height="31.1514" fill="white" transform="translate(19.3491 18.186)"/>
</clipPath>
</defs>
</svg>
