<svg width="69" height="69" viewBox="0 0 69 69" fill="none" xmlns="http://www.w3.org/2000/svg">
<rect x="0.765625" y="0.436096" width="67.7696" height="67.7696" rx="33.8848" fill="black"/>
<g clip-path="url(#clip0_159_776)">
<path fill-rule="evenodd" clip-rule="evenodd" d="M44.7764 43.0727L45.4207 40.6153L44.9772 40.1297C44.7764 39.8383 44.7344 39.5825 44.8444 39.3623C45.084 38.8864 45.5826 38.9738 46.0488 38.9738C46.5377 38.9738 47.1399 38.8799 47.2921 39.4919C47.3439 39.6958 47.2791 39.9095 47.1367 40.1297L46.6931 40.6153L47.0784 42.0917L49.6329 39.8707L50.957 39.903C50.5005 38.9868 49.921 38.2098 49.2476 37.4781C50.5167 37.9702 51.815 38.4558 52.7766 39.058C53.3885 39.44 53.7025 39.7314 53.9518 40.1944C54.4763 41.1819 54.5346 42.0658 54.6123 43.1342L54.7969 44.0601H47.5964L47.6029 44.0828H44.8477C44.7862 44.7141 44.4235 45.08 43.7145 45.1318H34.9762H26.0922C25.3799 45.0767 25.0173 44.7109 24.959 44.0731L25.2051 40.175C25.2731 39.2749 25.5256 38.5627 25.9368 38.0187C26.2087 37.6594 26.5454 37.3939 26.9178 37.1867C28.0995 36.5294 30.8579 36.3352 31.9296 35.3704L33.5711 40.1977L34.3967 37.3324L33.992 36.8888C33.8106 36.6233 33.7686 36.3902 33.8722 36.1895C34.0923 35.7556 34.5456 35.8366 34.9697 35.8366C35.4133 35.8366 35.9604 35.7524 36.0996 36.3093C36.145 36.4938 36.0867 36.6881 35.9572 36.8888L35.5525 37.3324L36.3781 40.1977L37.8641 35.3704C38.9358 36.3352 41.6975 36.5294 42.876 37.1867C43.2483 37.3939 43.5882 37.6594 43.857 38.0187C44.2681 38.5627 44.5207 39.2717 44.5887 40.175L44.7764 43.0727ZM19.9569 37.7533L21.0577 40.9876L21.6113 39.0677L21.3394 38.7699C21.2163 38.5918 21.1904 38.4364 21.2584 38.3004C21.4041 38.009 21.7084 38.0641 21.9934 38.0641C22.2912 38.0641 22.6571 38.009 22.751 38.3813C22.7833 38.5044 22.7412 38.6371 22.6571 38.7699L22.3851 39.0677L22.9387 40.9876L23.9359 37.7533C24.0816 37.8828 24.2824 37.9928 24.5187 38.0867C24.4378 38.2583 24.3633 38.4396 24.2985 38.6274C24.1302 39.1163 24.0201 39.6602 23.9748 40.2656H23.978C23.978 40.2786 23.9748 40.2948 23.9748 40.3077L23.7352 44.0569H22.0031H15.7674C15.2883 44.0213 15.0454 43.7752 15.0066 43.3478L15.1717 40.9714C15.217 40.3692 15.3886 39.8933 15.6638 39.5275C15.8451 39.2879 16.0718 39.1098 16.3211 38.9706C17.111 38.5303 19.2382 38.4008 19.9569 37.7533ZM19.4162 33.1688C19.3094 33.1785 19.2284 33.2012 19.1702 33.24C19.1378 33.2627 19.1119 33.2918 19.0957 33.3242C19.0763 33.3631 19.0698 33.4149 19.0698 33.4699C19.0763 33.648 19.1702 33.8875 19.3547 34.1627L19.3579 34.1692L19.9731 35.147C20.2191 35.5355 20.4749 35.9337 20.7922 36.2251C21.0933 36.5003 21.4592 36.6881 21.9448 36.6881C22.4693 36.6881 22.8513 36.4938 23.1654 36.2024C23.4924 35.8949 23.7514 35.474 24.0072 35.0531L24.6968 33.9167C24.836 33.5994 24.8781 33.4084 24.8327 33.3177C24.8036 33.2627 24.6903 33.2465 24.5025 33.2627C24.3827 33.2886 24.2565 33.2659 24.1237 33.1979L24.4701 32.1619C23.2042 32.1457 22.3398 31.9256 21.3135 31.2716C20.9767 31.0579 20.8764 30.8118 20.5397 30.8345C20.2839 30.883 20.0702 30.9964 19.9019 31.1809C19.74 31.3557 19.617 31.5953 19.536 31.9029L19.74 33.1429C19.6364 33.2076 19.5263 33.2141 19.4162 33.1688ZM24.8975 32.8612C25.0464 32.9065 25.1565 32.9907 25.2213 33.1235C25.3249 33.3339 25.286 33.648 25.0885 34.0948C25.0853 34.1045 25.082 34.1109 25.0756 34.1207L24.3762 35.2732C24.1043 35.72 23.8291 36.1668 23.46 36.5132C23.0747 36.8759 22.5988 37.1154 21.948 37.1122C21.3394 37.1122 20.8829 36.8791 20.5073 36.5359C20.1479 36.2057 19.8727 35.7848 19.6137 35.3704L18.9986 34.3926C18.7687 34.0494 18.6521 33.7386 18.6424 33.4796C18.6392 33.3533 18.6586 33.24 18.7072 33.1429C18.7557 33.0361 18.8302 32.9486 18.9338 32.8806C18.9824 32.8483 19.0407 32.8191 19.1022 32.7965C19.0633 32.272 19.0504 31.6245 19.0763 31.0805C19.0892 30.9478 19.1151 30.815 19.1507 30.6823C19.3094 30.1222 19.7011 29.6689 20.19 29.3581C20.3616 29.248 20.5494 29.1574 20.7501 29.0862C21.9318 28.6588 23.4956 28.8919 24.3342 29.7984C24.6741 30.1675 24.891 30.6564 24.9363 31.3039L24.8975 32.8612ZM31.0813 28.5325C30.9454 28.5487 30.8385 28.5843 30.7608 28.6361C30.7123 28.6685 30.6734 28.7138 30.6507 28.7624C30.6248 28.8207 30.6119 28.8951 30.6119 28.9793C30.6184 29.248 30.7608 29.6009 31.0392 30.0089L31.0457 30.0154L31.962 31.4755C32.3278 32.0583 32.7099 32.6508 33.1825 33.0814C33.6326 33.4926 34.1797 33.771 34.8985 33.7742C35.682 33.7775 36.2518 33.4861 36.718 33.0522C37.2069 32.5957 37.5954 31.9644 37.9775 31.3363L39.007 29.6398C39.2142 29.1671 39.279 28.8822 39.211 28.7462C39.1689 28.6588 38.9876 28.6394 38.6833 28.6685C38.6606 28.6718 38.6379 28.6718 38.6153 28.6685C38.489 28.6685 38.353 28.6361 38.2041 28.5681L38.6671 27.0206C36.7763 26.9979 35.4845 26.6677 33.9563 25.6899C33.4545 25.3694 33.3023 25.0035 32.8005 25.0391C32.4217 25.1136 32.1012 25.282 31.8487 25.5539C31.6058 25.8162 31.4213 26.1723 31.3015 26.6288L31.6285 28.5002C31.4342 28.6005 31.2529 28.607 31.0813 28.5325ZM39.3049 28.0696C39.5283 28.1343 39.6902 28.2638 39.7905 28.4613C39.9459 28.7786 39.8876 29.2448 39.593 29.9118C39.5865 29.9247 39.5801 29.9377 39.5736 29.9474L38.5278 31.6698C38.1231 32.3367 37.712 33.0069 37.1583 33.5217C36.582 34.0624 35.873 34.4218 34.9017 34.4185C33.9952 34.4153 33.3121 34.0689 32.7519 33.5573C32.2145 33.0652 31.8066 32.4371 31.418 31.8187L30.5018 30.3585C30.1619 29.8502 29.9838 29.3808 29.9708 28.9955C29.9644 28.8077 29.9967 28.6394 30.068 28.4904C30.1424 28.3318 30.2525 28.1991 30.4047 28.0987C30.4791 28.0469 30.5633 28.0048 30.6572 27.9724C30.6022 27.1922 30.5827 26.2274 30.6184 25.4147C30.6378 25.2172 30.6766 25.0197 30.7317 24.8222C30.9648 23.9837 31.554 23.3103 32.2825 22.8473C32.5383 22.6854 32.8199 22.5494 33.1178 22.4426C34.8791 21.8048 37.2166 22.1544 38.4663 23.5078C38.9746 24.0582 39.2952 24.7899 39.3632 25.7547L39.3049 28.0696ZM42.4874 36.0406L43.2968 36.0179L43.967 36.0017C43.1835 33.5897 43.4458 31.3719 45.3333 29.4876C45.6538 30.5237 46.3693 31.3752 47.5899 32.0065C48.1727 32.4403 48.7393 32.9648 49.2832 33.5638C49.3803 33.1656 49.0112 32.6799 48.5612 32.1813C48.9756 32.3853 49.3577 32.6734 49.6264 33.2238C49.9404 33.8649 49.934 34.4023 49.8336 35.0984C49.785 35.4222 49.7073 35.7233 49.594 35.9985H50.711C51.8895 33.4764 51.1416 29.7369 48.7328 28.1505C47.9946 27.6649 47.4637 27.681 46.596 27.6843C45.602 27.6843 45.097 27.7167 44.2455 28.2768C42.9925 29.1056 42.222 30.5399 41.8982 32.531C41.8367 33.5249 41.7946 35.2409 42.4874 36.0406Z" fill="white"/>
</g>
<defs>
<clipPath id="clip0_159_776">
<rect width="39.7838" height="23" fill="white" transform="translate(15 22.1321)"/>
</clipPath>
</defs>
</svg>
