<svg width="69" height="69" viewBox="0 0 69 69" fill="none" xmlns="http://www.w3.org/2000/svg">
<rect x="0.765625" y="0.558228" width="67.7696" height="67.7696" rx="33.8848" fill="black"/>
<g clip-path="url(#clip0_159_794)">
<path fill-rule="evenodd" clip-rule="evenodd" d="M34.1754 18.9847C34.7052 18.9627 35.1227 19.1458 35.545 19.4144C36.0797 19.7537 36.6827 20.4251 37.4274 20.8499C38.4747 21.4481 40.4132 20.6229 41.4044 22.0975C41.983 22.9569 42.0099 23.6307 42.0538 24.2972C42.1002 25.015 42.2272 25.6766 42.962 26.6483C44.1803 28.2596 44.4342 29.3314 43.8068 30.4471C43.3795 31.2088 42.4786 31.6312 42.2711 32.1146C41.8268 33.14 42.3175 33.9139 41.712 35.1102C41.2897 35.9403 40.6403 36.4871 39.7736 36.7655C39.0436 36.9998 38.3112 36.6605 37.7252 36.9071C36.6974 37.3392 35.9405 38.3426 35.1227 38.5965C34.8077 38.6942 34.4928 38.743 34.1778 38.7406C33.8629 38.743 33.548 38.6942 33.233 38.5965C32.4152 38.3426 31.6583 37.3392 30.6305 36.9071C30.0445 36.6605 29.3121 37.0023 28.5821 36.7655C27.7154 36.4871 27.066 35.9403 26.6437 35.1102C26.0358 33.9139 26.5265 33.14 26.0846 32.1146C25.8771 31.6312 24.9762 31.2088 24.5489 30.4471C23.9166 29.3314 24.1705 28.2596 25.3888 26.6507C26.1237 25.679 26.2506 25.0174 26.297 24.2996C26.3409 23.6331 26.3678 22.9593 26.9464 22.0999C27.9401 20.6253 29.8785 21.4505 30.9235 20.8524C31.6681 20.4276 32.2711 19.7562 32.8058 19.4168C33.2257 19.1458 33.6456 18.9603 34.1754 18.9847ZM34.1754 25.3226L35.2643 27.9837L38.1329 28.1961L35.9381 30.054L36.6217 32.847L34.1754 31.3333L31.7291 32.847L32.4127 30.054L30.2179 28.1961L33.0865 27.9837L34.1754 25.3226ZM44.6197 46.5872L41.7999 46.0819L40.401 48.5867C39.3854 49.8441 38.7408 47.7762 38.4576 47.056L35.7355 41.9217C36.3629 41.7044 37.1197 41.077 37.8961 40.3714C39.4464 40.4032 40.8917 40.1346 41.9537 38.7821L45.0812 44.8245L45.3522 45.4056C45.567 46.16 45.4547 46.658 44.6197 46.5872ZM23.7286 46.5872L26.5509 46.0819L27.9498 48.5867C28.9654 49.8441 29.61 47.7762 29.8932 47.056L32.6154 41.9217C31.9879 41.7044 31.2311 41.077 30.4547 40.3714C28.9044 40.4032 27.4591 40.1346 26.3971 38.7821L23.2672 44.8245L22.9962 45.4056C22.7814 46.16 22.8937 46.658 23.7286 46.5872ZM34.1461 22.9129C37.5153 22.9129 40.2472 25.6449 40.2472 29.014C40.2472 32.3831 37.5153 35.1151 34.1461 35.1151C30.777 35.1151 28.045 32.3831 28.045 29.014C28.0475 25.6449 30.777 22.9129 34.1461 22.9129Z" fill="white"/>
</g>
<defs>
<clipPath id="clip0_159_794">
<rect width="22.5464" height="30" fill="white" transform="translate(22.9023 18.9821)"/>
</clipPath>
</defs>
</svg>
