<svg width="69" height="68" viewBox="0 0 69 68" fill="none" xmlns="http://www.w3.org/2000/svg">
<rect x="0.765625" y="0.171906" width="67.7696" height="67.7696" rx="33.8848" fill="black"/>
<path d="M30.7297 24.1126C32.6297 20.7042 33.5797 19 35 19C36.4204 19 37.3703 20.7042 39.2702 24.1126L39.7618 24.9944C40.3018 25.9629 40.5716 26.4472 40.9927 26.7667C41.4136 27.0863 41.9377 27.2049 42.9862 27.4421L43.9408 27.6581C47.6302 28.4929 49.475 28.9103 49.9139 30.3216C50.3528 31.7329 49.0952 33.2037 46.5799 36.1449L45.9292 36.9058C45.2144 37.7416 44.857 38.1595 44.6962 38.6766C44.5355 39.1936 44.5895 39.7512 44.6975 40.8664L44.7959 41.8816C45.1762 45.8059 45.3664 47.7681 44.2174 48.6403C43.0682 49.5126 41.341 48.7173 37.8865 47.1268L36.9928 46.7152C36.0112 46.2633 35.5204 46.0372 35 46.0372C34.4797 46.0372 33.9889 46.2633 33.0073 46.7152L32.1136 47.1268C28.659 48.7173 26.9318 49.5126 25.7827 48.6403C24.6337 47.7681 24.8238 45.8059 25.2041 41.8816L25.3025 40.8664C25.4105 39.7512 25.4646 39.1936 25.3038 38.6766C25.143 38.1595 24.7856 37.7416 24.0709 36.9058L23.4202 36.1449C20.9049 33.2037 19.6472 31.7329 20.0861 30.3216C20.525 28.9103 22.3698 28.4929 26.0593 27.6581L27.0138 27.4421C28.0623 27.2049 28.5865 27.0863 29.0074 26.7667C29.4283 26.4472 29.6983 25.9629 30.2382 24.9944L30.7297 24.1126Z" fill="white"/>
</svg>
