<svg width="69" height="69" viewBox="0 0 69 69" fill="none" xmlns="http://www.w3.org/2000/svg">
<rect x="0.355469" y="0.82431" width="67.7696" height="67.7696" rx="33.8848" fill="black"/>
<g clip-path="url(#clip0_125_1044)">
<path fill-rule="evenodd" clip-rule="evenodd" d="M33.9812 19.1594C38.1602 19.1594 41.944 20.8536 44.6828 23.5924C47.4216 26.3311 49.1158 30.115 49.1158 34.2939C49.1158 38.4728 47.4216 42.2567 44.6828 44.9955C41.944 47.7343 38.1602 49.4285 33.9812 49.4285C29.8023 49.4285 26.0185 47.7343 23.2797 44.9955C20.5409 42.2567 18.8467 38.4728 18.8467 34.2939C18.8467 30.115 20.5409 26.3311 23.2797 23.5924C26.0185 20.8536 29.8023 19.1594 33.9812 19.1594ZM35.1368 37.03C35.0848 38.3344 32.8757 38.3361 32.8253 37.0296C32.6019 34.7947 32.0305 29.4888 32.0487 27.3888C32.0671 26.7417 32.6034 26.3586 33.2896 26.2124C33.5011 26.1672 33.7337 26.1453 33.9681 26.1455C34.2038 26.1459 34.437 26.1692 34.6488 26.2144C35.3575 26.3654 35.914 26.7642 35.9138 27.423L35.9112 27.4891L35.1368 37.03ZM33.9812 39.3482C34.8357 39.3482 35.5283 40.0409 35.5283 40.8954C35.5283 41.7498 34.8357 42.4424 33.9812 42.4424C33.1268 42.4424 32.434 41.7498 32.434 40.8954C32.434 40.0409 33.1268 39.3482 33.9812 39.3482ZM33.9812 20.9013C41.3779 20.9013 47.3739 26.8973 47.3739 34.2939C47.3739 41.6906 41.3779 47.6866 33.9812 47.6866C26.5846 47.6866 20.5886 41.6906 20.5886 34.2939C20.5886 26.8973 26.5846 20.9013 33.9812 20.9013Z" fill="white"/>
</g>
<defs>
<clipPath id="clip0_125_1044">
<rect width="30.2691" height="30.2691" fill="white" transform="translate(18.8452 19.1598)"/>
</clipPath>
</defs>
</svg>
