<svg width="69" height="69" viewBox="0 0 69 69" fill="none" xmlns="http://www.w3.org/2000/svg">
<rect x="0.355469" y="0.355469" width="67.7696" height="67.7696" rx="33.8848" fill="black"/>
<g clip-path="url(#clip0_125_762)">
<path d="M48.3868 40.3043C48.6479 40.0752 49.047 40.1023 49.2761 40.3634C49.5052 40.6245 49.4781 41.0236 49.2169 41.2527C45.3816 44.6077 43.4356 43.3342 41.4501 42.036C34.7081 37.6267 34.2203 48.751 26.4535 43.6716C24.8721 42.637 23.3202 41.6222 20.2066 44.3466C19.9454 44.5757 19.5464 44.5486 19.3173 44.2875C19.0882 44.0263 19.1153 43.6273 19.3764 43.3982C23.2118 40.0432 25.1578 41.3167 27.1432 42.6149C33.8853 47.0242 34.373 35.8999 42.1374 40.9792C43.7213 42.0138 45.2732 43.0287 48.3868 40.3043ZM20.2066 27.5714C19.9454 27.8005 19.5464 27.7734 19.3173 27.5123C19.0882 27.2512 19.1153 26.8522 19.3764 26.6231C23.2118 23.268 25.1578 24.5416 27.1432 25.8397C33.8853 30.2491 34.373 19.1248 42.1374 24.2041C43.7188 25.2387 45.2707 26.2536 48.3843 23.5292C48.6455 23.3001 49.0445 23.3272 49.2736 23.5883C49.5027 23.8494 49.4756 24.2484 49.2145 24.4775C45.3791 27.8326 43.4331 26.559 41.4477 25.2609C34.7081 20.8515 34.2203 31.9783 26.4535 26.8965C24.8721 25.8619 23.3202 24.847 20.2066 27.5714ZM20.2066 33.1632C19.9454 33.3922 19.5464 33.3651 19.3173 33.104C19.0882 32.8429 19.1153 32.4439 19.3764 32.2148C23.2118 28.8598 25.1578 30.1333 27.1432 31.4314C33.8853 35.8408 34.373 24.7165 42.1374 29.7958C43.7188 30.8304 45.2707 31.8453 48.3843 29.1209C48.6455 28.8918 49.0445 28.9189 49.2736 29.18C49.5027 29.4411 49.4756 29.8401 49.2145 30.0692C45.3791 33.4243 43.4331 32.1507 41.4477 30.8526C34.7081 26.4432 34.2203 37.57 26.4535 32.4882C24.8721 31.4536 23.3202 30.4387 20.2066 33.1632ZM20.2066 38.7549C19.9454 38.984 19.5464 38.9569 19.3173 38.6957C19.0882 38.4346 19.1153 38.0356 19.3764 37.8065C23.2118 34.4515 25.1578 35.725 27.1432 37.0232C33.8853 41.4325 34.373 30.3082 42.1374 35.3875C43.7188 36.4221 45.2707 37.437 48.3843 34.7126C48.6455 34.4835 49.0445 34.5106 49.2736 34.7717C49.5027 35.0328 49.4756 35.4319 49.2145 35.6609C45.3791 39.016 43.4331 37.7424 41.4477 36.4443C34.7081 32.035 34.2203 43.1617 26.4535 38.0799C24.8721 37.0453 23.3202 36.0304 20.2066 38.7549Z" fill="white"/>
</g>
<defs>
<clipPath id="clip0_125_762">
<rect width="30.2691" height="22.1846" fill="white" transform="translate(19.1633 22.8476)"/>
</clipPath>
</defs>
</svg>
