<svg width="1460" height="799" viewBox="0 0 1460 799" fill="none" xmlns="http://www.w3.org/2000/svg">
<path opacity="0.27" d="M2.49951 798C44.0014 545.5 322.063 535.941 514.499 584.5C1049.5 719.5 1373.32 762.5 1434 599C1470 502 1397.5 424.5 1248.5 374C1112.85 328.025 1147 195.5 1211 171.5" stroke="black" stroke-width="4" stroke-dasharray="14 14"/>
<g opacity="0.36">
<path fill-rule="evenodd" clip-rule="evenodd" d="M1240.26 119.909C1233.66 153.673 1229.5 171.268 1226.65 180.406L1269.94 147.417C1257.83 136.513 1246.55 125.917 1240.26 119.909Z" fill="#A0D5C2"/>
<path fill-rule="evenodd" clip-rule="evenodd" d="M1413.08 27.8396L1213.09 87.4819C1196.26 73.5085 1178.62 57.7065 1173.94 52.069C1192.23 47.4818 1317.3 35.8934 1413.08 27.8396ZM1429.26 29.5115C1387.85 88.3179 1324.96 175.194 1317.61 178.726C1311.75 178.355 1275.61 146.936 1242.97 115.737L1429.26 29.5115ZM1240.28 119.919C1246.57 125.93 1257.85 136.526 1269.97 147.432L1226.67 180.429C1229.52 171.291 1233.67 153.692 1240.28 119.919ZM1404.53 35.5225L1237.61 112.795C1237.45 112.887 1237.3 113.041 1237.14 113.166C1237.05 113.258 1236.96 113.352 1236.84 113.477C1236.65 113.723 1236.49 114.034 1236.37 114.342C1236.37 114.467 1236.28 114.467 1236.28 114.561C1231.28 140.648 1225.08 169.151 1221.55 180.957L1221.52 180.894C1219.32 165.155 1216.56 121.468 1215.01 92.0039L1404.53 35.5225ZM1436.45 21.0527C1436.39 21.0527 1436.33 21.0527 1436.3 21.0841H1436.24C1338.04 29.1405 1172.7 43.5789 1168.55 49.4645C1168.08 50.0863 1167.93 50.8595 1168.11 51.6328C1169.48 57.2101 1197.34 80.8831 1210.11 91.4788C1214.08 170.298 1216.99 185.698 1218.61 189.105C1218.64 189.23 1218.76 189.384 1218.79 189.478C1218.95 189.786 1219.23 190.066 1219.54 190.22L1219.63 190.251L1219.69 190.314H1219.78C1220.16 190.468 1220.53 190.562 1220.93 190.562C1220.99 190.562 1221.03 190.562 1221.06 190.562C1221.8 190.562 1222.48 190.157 1222.85 189.57L1273.66 150.81C1292.32 167.511 1311.94 183.653 1317.61 183.653C1317.77 183.653 1318.2 183.621 1318.29 183.621C1327.56 182.195 1412.59 61.766 1438.41 24.8641L1438.47 24.8328L1438.53 24.71C1438.59 24.616 1438.63 24.5245 1438.63 24.4618C1438.75 24.3077 1438.78 24.1536 1438.84 23.9968V22.9441C1438.78 22.9127 1438.78 22.85 1438.75 22.7586C1438.75 22.6332 1438.69 22.5418 1438.69 22.4477C1438.69 22.385 1438.63 22.385 1438.59 22.3249C1438.59 22.2936 1438.59 22.2309 1438.59 22.2309L1438.53 22.1682C1438.47 22.1395 1438.47 22.0768 1438.41 22.0768C1438.41 22.0768 1438.41 22.0141 1438.38 22.0141V21.9827C1438.38 21.9226 1438.38 21.86 1438.31 21.86H1438.25C1438.22 21.7659 1438.16 21.7058 1438.07 21.6745C1438.01 21.6118 1437.91 21.489 1437.76 21.4576C1437.63 21.3323 1437.54 21.3009 1437.38 21.2408C1437.29 21.1781 1437.17 21.1468 1437.08 21.1468C1437.01 21.0841 1436.98 21.0841 1436.92 21.0841C1436.83 21.0527 1436.77 21.0527 1436.7 21.0527C1436.64 21.0527 1436.61 21.0527 1436.55 21.0841C1436.52 21.0527 1436.49 21.0527 1436.45 21.0527Z" fill="#201E1F" stroke="#201E1F" stroke-width="0.315761" stroke-miterlimit="10" stroke-linejoin="round"/>
<path fill-rule="evenodd" clip-rule="evenodd" d="M1404.58 35.5071L1215.09 91.9833C1216.58 121.448 1219.34 165.129 1221.57 180.868C1225.1 169.126 1231.36 140.562 1236.35 114.538C1236.35 114.444 1236.38 114.444 1236.44 114.321C1236.54 114.011 1236.69 113.702 1236.91 113.454C1237 113.329 1237.13 113.237 1237.22 113.143C1237.37 112.989 1237.53 112.866 1237.69 112.772L1404.58 35.5071Z" fill="#06816F"/>
<path fill-rule="evenodd" clip-rule="evenodd" d="M1429.19 29.428L1243.01 115.706C1275.59 146.902 1311.73 178.316 1317.58 178.687C1324.93 175.155 1387.75 88.2892 1429.19 29.428Z" fill="#A0D5C2"/>
<path fill-rule="evenodd" clip-rule="evenodd" d="M1413.12 27.8162C1317.35 35.8726 1192.21 47.4636 1173.99 52.0508C1178.61 57.6909 1196.24 73.4955 1213.07 87.4716L1413.12 27.8162Z" fill="#A0D5C2"/>
<path fill-rule="evenodd" clip-rule="evenodd" d="M1388.45 29.9348C1297.07 37.8319 1190.66 47.8999 1173.99 52.0822C1175.69 54.0337 1177.46 55.9537 1179.38 57.7197C1249.31 50.2536 1318.96 40.9929 1388.45 29.9348Z" fill="white"/>
<path fill-rule="evenodd" clip-rule="evenodd" d="M1410.34 56.0923C1386.9 84.9926 1361.51 112.187 1334.38 137.584C1323.5 147.684 1312.28 157.749 1302.98 169.241C1310.29 175.001 1315.63 178.533 1317.55 178.687C1323.81 175.683 1370.94 111.474 1410.34 56.0923Z" fill="white"/>
</g>
</svg>
