<svg width="69" height="68" viewBox="0 0 69 68" fill="none" xmlns="http://www.w3.org/2000/svg">
<rect x="0.765625" y="0.171913" width="67.7696" height="67.7696" rx="33.8848" fill="black"/>
<g clip-path="url(#clip0_159_738)">
<path d="M46.9468 46.0664C46.8682 45.8746 46.8242 45.6639 46.8242 45.4438C46.8242 45.2237 46.8682 45.013 46.9468 44.8212C47.0286 44.6294 47.1449 44.4533 47.2896 44.3087L47.299 44.2961C47.3808 44.2143 47.4751 44.1357 47.5757 44.076C47.6292 44.0414 47.6858 44.01 47.7487 43.9817V41.397H45.0728C44.9911 41.963 44.7206 42.4724 44.3307 42.8654C43.8434 43.3528 43.1673 43.6546 42.4221 43.6546H40.809V50.7043H45.5413C45.5665 50.6634 45.5916 50.6226 45.6199 50.5817C45.6765 50.4999 45.7394 50.4245 45.8086 50.3553C45.9564 50.2075 46.1356 50.0849 46.3368 50.0031C46.5286 49.9245 46.7393 49.8805 46.9594 49.8805C47.1764 49.8805 47.3902 49.9245 47.582 50.0031C47.7833 50.0849 47.9593 50.2075 48.1103 50.3553C48.2581 50.5031 48.3807 50.6823 48.4624 50.8835C48.541 51.0753 48.5851 51.286 48.5851 51.5061C48.5851 51.7231 48.541 51.9306 48.4624 52.1287C48.3807 52.3299 48.2581 52.5092 48.1103 52.657C47.9625 52.8047 47.7833 52.9274 47.582 53.0091C47.3902 53.0877 47.1795 53.1318 46.9594 53.1318C46.7456 53.1318 46.5412 53.0909 46.3494 53.0123L46.3368 53.0091C46.1356 52.9274 45.9595 52.8047 45.8086 52.657C45.7174 52.5658 45.6356 52.4589 45.5665 52.3488C45.5287 52.2859 45.4942 52.2167 45.4659 52.1507H40.0858C39.8846 52.1507 39.7054 52.069 39.5733 51.9369C39.4381 51.8017 39.3563 51.6225 39.3563 51.4212V43.6546H35.8347V50.0503C35.8881 50.0786 35.9416 50.1069 35.995 50.1415C36.0925 50.2012 36.1837 50.2767 36.2623 50.3553C36.4132 50.5062 36.5327 50.6823 36.6145 50.8835C36.6931 51.0753 36.7371 51.286 36.7371 51.5061C36.7371 51.7199 36.6962 51.9243 36.6176 52.1161L36.6145 52.1287C36.5327 52.3299 36.4101 52.506 36.2623 52.657C36.1145 52.8047 35.9353 52.9274 35.734 53.0091C35.5422 53.0877 35.3316 53.1318 35.1115 53.1318C34.8945 53.1318 34.6838 53.0877 34.4889 53.0091C34.2876 52.9274 34.1084 52.8047 33.9606 52.657C33.8128 52.5092 33.6902 52.3299 33.6084 52.1287C33.5298 51.9369 33.4858 51.7262 33.4858 51.5061C33.4858 51.2923 33.5267 51.0879 33.6053 50.8961L33.6084 50.8835C33.6902 50.6823 33.8128 50.5062 33.9606 50.3553C34.0392 50.2767 34.1241 50.2075 34.2185 50.1478L34.231 50.1383C34.2813 50.11 34.3348 50.0817 34.3883 50.0534V43.6546H29.6906V46.9688C29.6906 47.17 29.6088 47.3493 29.4768 47.4813C29.3447 47.6134 29.1655 47.6952 28.9642 47.6952H25.6312C25.606 47.7455 25.5777 47.7926 25.5463 47.8429C25.4897 47.9278 25.4237 48.0096 25.3482 48.0851L25.3356 48.0976C25.1878 48.2454 25.0086 48.368 24.8074 48.4498C24.6156 48.5284 24.4049 48.5724 24.1848 48.5724C23.971 48.5724 23.7666 48.5316 23.5748 48.4529L23.5622 48.4498C23.361 48.368 23.1849 48.2454 23.0339 48.0976C22.8862 47.9498 22.7635 47.7706 22.6818 47.5694C22.6032 47.3776 22.5591 47.1669 22.5591 46.9468C22.5591 46.7298 22.6032 46.5192 22.6818 46.3242C22.7635 46.123 22.8862 45.9437 23.0339 45.796C23.188 45.6513 23.3704 45.5287 23.5716 45.4469C23.7634 45.3683 23.9741 45.3243 24.1942 45.3243C24.4143 45.3243 24.625 45.3683 24.8168 45.4469C25.0086 45.5287 25.1847 45.645 25.3293 45.7928L25.3419 45.8022C25.4237 45.884 25.5023 45.9783 25.562 46.0789C25.5935 46.1324 25.628 46.189 25.6563 46.2519H28.241V43.5949C27.7285 43.4817 27.2694 43.2239 26.9141 42.8685C26.4393 42.3937 26.1469 41.746 26.1469 41.0354V39.3091H18.4306V44.0414C18.4715 44.0666 18.5123 44.0917 18.5532 44.12C18.635 44.1766 18.7073 44.2395 18.7796 44.3087C18.9274 44.4565 19.05 44.6357 19.1318 44.8369C19.2104 45.0287 19.2544 45.2394 19.2544 45.4595C19.2544 45.6765 19.2104 45.8903 19.1318 46.0821C19.05 46.2833 18.9274 46.4594 18.7796 46.6103C18.6318 46.7581 18.4526 46.8808 18.2514 46.9625C18.0596 47.0411 17.8489 47.0851 17.6288 47.0851C17.4118 47.0851 17.2043 47.0411 17.0062 46.9625C16.805 46.8808 16.6257 46.7581 16.4779 46.6103C16.3302 46.4626 16.2075 46.2833 16.1258 46.0821C16.044 45.884 16 45.6733 16 45.4532C16 45.2394 16.0409 45.035 16.1195 44.8432L16.1226 44.8306C16.2044 44.6294 16.327 44.4533 16.4748 44.3024C16.566 44.2112 16.6729 44.1294 16.7829 44.0603C16.8427 44.0225 16.915 43.9879 16.981 43.9596V38.5828C16.981 38.3815 17.0628 38.2023 17.1949 38.0702C17.3301 37.935 17.5093 37.8533 17.7105 37.8533H26.1469V34.3316H19.0846C19.0563 34.3851 19.028 34.4385 18.9934 34.492C18.9337 34.5894 18.8582 34.6806 18.7796 34.7592C18.6287 34.9102 18.4526 35.0296 18.2514 35.1114C18.0596 35.19 17.8489 35.234 17.6288 35.234C17.415 35.234 17.2106 35.1932 17.0188 35.1145L17.0062 35.1114C16.805 35.0296 16.6289 34.907 16.4779 34.7592C16.3302 34.6114 16.2075 34.4322 16.1258 34.231C16.0472 34.0392 16.0031 33.8285 16.0031 33.6084C16.0031 33.3914 16.0472 33.1808 16.1258 32.9858C16.2075 32.7846 16.3302 32.6053 16.4779 32.4576C16.6257 32.3098 16.805 32.1871 17.0062 32.1054C17.2011 32.0236 17.4087 31.9796 17.6319 31.9796C17.8457 31.9796 18.0501 32.0205 18.2419 32.0991L18.2545 32.1022C18.4557 32.184 18.6318 32.3066 18.7828 32.4544C18.8614 32.533 18.9305 32.6179 18.9934 32.7122L19.0029 32.7248C19.0312 32.7751 19.0595 32.8286 19.0878 32.882H26.1469V28.5082C26.1469 28.4013 26.1532 28.2944 26.1657 28.1875H22.1661C21.9649 28.1875 21.7856 28.1058 21.6536 27.9737C21.5215 27.8416 21.4398 27.6624 21.4398 27.4612V24.1281C21.3894 24.103 21.3423 24.0747 21.292 24.0432C21.2071 23.9866 21.1253 23.9206 21.0499 23.8451L21.0373 23.8326C20.8895 23.6848 20.7669 23.5055 20.6851 23.3043C20.6065 23.1125 20.5625 22.9018 20.5625 22.6817C20.5625 22.4679 20.6034 22.2635 20.682 22.0717L20.6851 22.0591C20.7669 21.8579 20.8895 21.6818 21.0373 21.5309C21.1851 21.3831 21.3643 21.2605 21.5655 21.1787C21.7573 21.1001 21.968 21.0561 22.1881 21.0561C22.4051 21.0561 22.6157 21.1001 22.8107 21.1787C23.0119 21.2605 23.1912 21.3831 23.3389 21.5309C23.4836 21.685 23.6062 21.8673 23.688 22.0686C23.7666 22.2604 23.8106 22.4711 23.8106 22.6912C23.8106 22.9113 23.7666 23.1219 23.688 23.3137C23.6062 23.5055 23.4899 23.6816 23.3452 23.8263L23.3358 23.8388C23.2541 23.9206 23.1597 23.9992 23.056 24.059C23.0025 24.0904 22.9459 24.125 22.883 24.1533V26.738H26.8292V26.7568C26.8544 26.7285 26.8826 26.7002 26.9078 26.6751C27.3952 26.1877 28.0712 25.8858 28.8164 25.8858H30.3289V17.4306H25.6029C25.5777 17.4715 25.5526 17.5124 25.5243 17.5533C25.4677 17.635 25.4048 17.7073 25.3356 17.7797C25.1878 17.9274 25.0086 18.0501 24.8074 18.1318C24.6156 18.2104 24.4049 18.2545 24.1848 18.2545C23.9678 18.2545 23.754 18.2104 23.5622 18.1318C23.361 18.0501 23.1849 17.9274 23.0339 17.7797C22.8862 17.6319 22.7635 17.4526 22.6818 17.2514C22.6032 17.0565 22.5591 16.8489 22.5591 16.6257C22.5591 16.4087 22.6032 16.2012 22.6818 16.0031C22.7635 15.8019 22.8862 15.6226 23.0339 15.4748C23.1817 15.3271 23.361 15.2044 23.5622 15.1227C23.754 15.0441 23.9647 15 24.1848 15C24.3986 15 24.603 15.0409 24.7948 15.1195L24.8074 15.1227C25.0086 15.2044 25.1847 15.3271 25.3356 15.4748C25.4268 15.566 25.5086 15.6729 25.5777 15.783C25.6155 15.8427 25.6501 15.915 25.6815 15.9811H31.0552C31.2565 15.9811 31.4357 16.0628 31.5678 16.1949C31.703 16.3301 31.7847 16.5093 31.7847 16.7106V25.8858H35.3064V18.0847C35.253 18.0564 35.1995 18.0281 35.146 17.9935C35.0486 17.9337 34.9574 17.8583 34.8788 17.7797C34.7278 17.6287 34.6084 17.4526 34.5266 17.2514C34.448 17.0596 34.404 16.8489 34.404 16.6288C34.404 16.415 34.4449 16.2106 34.5235 16.0188L34.5266 16.0062C34.6084 15.805 34.731 15.6289 34.8788 15.478C35.0266 15.3302 35.2058 15.2076 35.407 15.1258C35.5988 15.0472 35.8095 15.0032 36.0296 15.0032C36.2466 15.0032 36.4572 15.0472 36.6522 15.1258C36.8534 15.2076 37.0327 15.3302 37.1804 15.478C37.3282 15.6258 37.4509 15.805 37.5326 16.0062C37.6112 16.198 37.6552 16.4087 37.6552 16.6288C37.6552 16.8426 37.6144 17.047 37.5358 17.2388L37.5326 17.2514C37.4509 17.4526 37.3282 17.6287 37.1804 17.7797C37.1018 17.8583 37.0169 17.9274 36.9226 17.9903L36.91 17.9998C36.8597 18.0281 36.8063 18.0564 36.7528 18.0847V25.8827H41.4474V21.1661C41.4474 20.9649 41.5291 20.7857 41.6612 20.6536C41.7932 20.5215 41.9725 20.4398 42.1737 20.4398H45.5099C45.535 20.3895 45.5633 20.3423 45.5948 20.292C45.6514 20.2071 45.7174 20.1254 45.7929 20.0499L45.8054 20.0373C45.9532 19.8895 46.1325 19.7669 46.3337 19.6851C46.5255 19.6065 46.7362 19.5625 46.9563 19.5625C47.1701 19.5625 47.3745 19.6034 47.5663 19.682L47.5789 19.6851C47.7801 19.7669 47.9562 19.8895 48.1071 20.0373C48.2549 20.1851 48.3775 20.3643 48.4593 20.5656C48.5379 20.7574 48.5819 20.968 48.5819 21.1881C48.5819 21.4051 48.5379 21.6158 48.4593 21.8107C48.3775 22.012 48.2549 22.1912 48.1071 22.339C47.9499 22.4836 47.7707 22.6063 47.5694 22.688C47.3776 22.7666 47.167 22.8106 46.9468 22.8106C46.7267 22.8106 46.5161 22.7666 46.3243 22.688C46.1325 22.6063 45.9564 22.4899 45.8117 22.3453L45.7992 22.3358C45.7174 22.2541 45.6388 22.1598 45.579 22.0591C45.5445 22.0057 45.513 21.9491 45.4847 21.8862H42.9001V25.9236C43.4566 26.021 43.9534 26.2915 44.3339 26.6719C44.8087 27.1467 45.1011 27.7945 45.1011 28.5051V28.829H52.2074V24.0967C52.1665 24.0715 52.1256 24.0464 52.0847 24.0181C52.003 23.9615 51.9307 23.8986 51.8615 23.8294C51.7137 23.6816 51.5911 23.5024 51.5093 23.3012C51.4307 23.1094 51.3867 22.8987 51.3867 22.6786C51.3867 22.4616 51.4307 22.2478 51.5093 22.056C51.5911 21.8548 51.7137 21.6787 51.8615 21.5277C52.0093 21.38 52.1885 21.2573 52.3897 21.1756C52.5816 21.097 52.7922 21.0529 53.0123 21.0529C53.2293 21.0529 53.44 21.097 53.6349 21.1756C53.8362 21.2573 54.0154 21.38 54.1632 21.5277C54.311 21.6755 54.4336 21.8548 54.5153 22.056C54.5939 22.2478 54.638 22.4585 54.638 22.6786C54.638 22.8924 54.5971 23.0968 54.5185 23.2886L54.5153 23.3012C54.4336 23.5024 54.311 23.6785 54.1632 23.8294C54.072 23.9206 53.9651 24.0024 53.855 24.0715C53.7921 24.1093 53.723 24.1439 53.6569 24.1753V29.549C53.6569 29.7503 53.5752 29.9295 53.4431 30.0615C53.3079 30.1968 53.1287 30.2785 52.9274 30.2785H45.1011V33.8002H51.5533C51.5816 33.7467 51.6099 33.6933 51.6445 33.6398C51.7074 33.5424 51.7797 33.4512 51.8583 33.3726C52.0093 33.2216 52.1854 33.1022 52.3866 33.0204C52.5784 32.9418 52.7891 32.8978 53.0092 32.8978C53.223 32.8978 53.4274 32.9386 53.6192 33.0173L53.6318 33.0204C53.833 33.1022 54.0091 33.2248 54.16 33.3726C54.3078 33.5204 54.4304 33.6996 54.5122 33.9008C54.5908 34.0926 54.6348 34.3033 54.6348 34.5234C54.6348 34.7404 54.5908 34.951 54.5122 35.146C54.4304 35.3472 54.3078 35.5265 54.16 35.6742C54.0122 35.822 53.833 35.9447 53.6318 36.0264C53.44 36.105 53.2293 36.149 53.0092 36.149C52.7954 36.149 52.591 36.1082 52.3992 36.0296L52.3866 36.0264C52.1854 35.9447 52.0093 35.822 51.8583 35.6742C51.7797 35.5956 51.7106 35.5107 51.6477 35.4164L51.6382 35.4038C51.6099 35.3535 51.5816 35.3001 51.5533 35.2466H45.1011V39.9411H48.4719C48.6731 39.9411 48.8523 40.0229 48.9844 40.155C49.1165 40.287 49.1982 40.4663 49.1982 40.6675V44.0037C49.2485 44.0288 49.2957 44.0571 49.346 44.0917C49.4309 44.1483 49.5127 44.2143 49.5881 44.2898L49.6007 44.3024C49.7485 44.4502 49.8711 44.6294 49.9529 44.8306C50.0315 45.0224 50.0755 45.2331 50.0755 45.4532C50.0755 45.667 50.0346 45.8714 49.956 46.0632L49.9529 46.0758C49.8711 46.277 49.7485 46.4531 49.6007 46.6041C49.4529 46.7518 49.2737 46.8745 49.0724 46.9562C48.8806 47.0348 48.67 47.0789 48.4499 47.0789C48.2329 47.0789 48.0222 47.0348 47.8273 46.9562C47.626 46.8745 47.4468 46.7518 47.299 46.6041C47.1544 46.45 47.0286 46.2676 46.9468 46.0664ZM32.8192 31.3948H38.4288C38.8658 31.3948 39.2211 31.7501 39.2211 32.1871V37.3533C39.2211 37.7904 38.8658 38.1457 38.4288 38.1457H32.8192C32.3821 38.1457 32.0268 37.7904 32.0268 37.3533V32.1871C32.0268 31.7501 32.3821 31.3948 32.8192 31.3948ZM42.4253 27.2882H28.8196C28.5083 27.2882 28.2221 27.4171 28.0146 27.6278C27.7914 27.8511 27.653 28.1624 27.653 28.5082V41.0322C27.653 41.3781 27.7914 41.6894 28.0146 41.9127C28.2253 42.1233 28.5083 42.2523 28.8196 42.2523H42.4253C42.7365 42.2523 43.0227 42.1233 43.2302 41.9127C43.4535 41.6894 43.5918 41.3781 43.5918 41.0322V28.5082C43.5918 28.1624 43.4535 27.8511 43.2302 27.6278C43.0227 27.4171 42.7365 27.2882 42.4253 27.2882Z" fill="white"/>
</g>
<defs>
<clipPath id="clip0_159_738">
<rect width="38.638" height="38.1349" fill="white" transform="translate(16 15)"/>
</clipPath>
</defs>
</svg>
